<?xml version="1.0" encoding="UTF-8"?>
<svg xmlns="http://www.w3.org/2000/svg" version="1.1" xmlns:xlink="http://www.w3.org/1999/xlink" viewBox="0.5 0.36632102727890015 126 127.13368225097656">
<g><path fill="currentColor" d="M 60.5,0.5 C 63.3646,0.0548358 65.8646,0.721502 68,2.5C 70.6347,7.29825 73.4681,11.9649 76.5,16.5C 73.3552,22.2257 74.0219,23.2257 78.5,19.5C 82.7254,21.2422 87.0587,22.5755 91.5,23.5C 91.6176,27.4816 89.6176,29.8149 85.5,30.5C 81.4827,30.1923 78.4827,32.0257 76.5,36C 73.2039,37.5107 69.8706,38.6774 66.5,39.5C 64.5,30.1667 62.5,30.1667 60.5,39.5C 54.4118,38.958 49.7451,36.1247 46.5,31C 43.1909,30.8707 39.8576,29.8707 36.5,28C 34.913,25.1348 35.5797,22.9681 38.5,21.5C 41.8251,21.846 45.1584,21.1793 48.5,19.5C 49.7481,20.0402 50.9148,20.7069 52,21.5C 50.9057,19.4062 50.5723,17.0729 51,14.5C 54.4241,9.97763 57.5908,5.31096 60.5,0.5 Z"/></g>
<g><path fill="currentColor" d="M 87.5,7.5 C 89.3464,7.22216 90.6798,7.88882 91.5,9.5C 89.6731,12.8198 87.3398,15.6531 84.5,18C 77.3466,19.5247 75.8466,17.358 80,11.5C 82.5138,9.99577 85.0138,8.66243 87.5,7.5 Z"/></g>
<g><path fill="currentColor" d="M 36.5,7.5 C 40.1055,7.79862 43.4388,8.96529 46.5,11C 50.8821,18.6389 48.8821,20.4722 40.5,16.5C 38.4453,14.4451 36.7787,12.1117 35.5,9.5C 35.8627,8.81654 36.1961,8.14987 36.5,7.5 Z"/></g>
<g><path fill="currentColor" d="M 60.5,127.5 C 59.8333,127.5 59.1667,127.5 58.5,127.5C 56.9087,126.781 55.4087,125.781 54,124.5C 53.4783,118.264 50.6449,116.93 45.5,120.5C 43.7336,120.566 42.7336,119.732 42.5,118C 43.8333,115 45.1667,112 46.5,109C 45.5076,105.93 45.8409,102.93 47.5,100C 44.6,90.5667 41.9333,81.0667 39.5,71.5C 41.0247,69.2 42.1913,66.8667 43,64.5C 42.586,64.0426 42.086,63.7093 41.5,63.5C 40.3122,64.84 38.8122,65.5066 37,65.5C 25.8333,63 14.6667,60.5 3.5,58C 2.48408,56.3232 1.48408,54.6565 0.5,53C 6.13735,48.8429 12.1374,45.1762 18.5,42C 20.0349,41.5038 21.5349,41.6705 23,42.5C 28.0121,40.4926 33.0121,38.4926 38,36.5C 45.7661,40.0517 53.0995,44.385 60,49.5C 60.9052,54.7179 60.4052,59.7179 58.5,64.5C 61.4091,68.5779 61.0758,72.2446 57.5,75.5C 61.4851,79.1206 61.4851,82.7873 57.5,86.5C 58.1449,87.646 58.9783,88.646 60,89.5C 60.4999,102.162 60.6666,114.829 60.5,127.5 Z"/></g>
<g><path fill="currentColor" d="M 68.5,127.5 C 67.8333,127.5 67.1667,127.5 66.5,127.5C 66.3334,114.829 66.5001,102.162 67,89.5C 68.2362,88.6008 69.0696,87.4341 69.5,86C 67.6723,84.8371 66.6723,83.1704 66.5,81C 67.5354,79.1623 68.5354,77.3289 69.5,75.5C 68.8141,73.653 67.8141,71.9863 66.5,70.5C 67.5,68.5 68.5,66.5 69.5,64.5C 66.6095,59.9679 65.7762,54.9679 67,49.5C 74.1112,44.7072 81.4445,40.3738 89,36.5C 93.8783,38.3547 98.7116,40.3547 103.5,42.5C 105.098,41.5153 106.765,41.3486 108.5,42C 114.008,45.2547 119.675,48.2547 125.5,51C 126.022,51.5613 126.355,52.228 126.5,53C 125.599,56.1612 123.599,58.1612 120.5,59C 110.333,61.1667 100.167,63.3333 90,65.5C 88.1878,65.5066 86.6878,64.84 85.5,63.5C 84.914,63.7093 84.414,64.0426 84,64.5C 85.262,66.9915 86.4286,69.6581 87.5,72.5C 85.0618,82.0888 82.3952,91.5888 79.5,101C 81.6127,103.449 81.946,106.115 80.5,109C 81.8333,112 83.1667,115 84.5,118C 84.2664,119.732 83.2664,120.566 81.5,120.5C 76.3551,116.93 73.5217,118.264 73,124.5C 71.5913,125.781 70.0913,126.781 68.5,127.5 Z"/></g>
<g><path fill="currentColor" d="M 92.5,68.5 C 96.6726,68.4187 100.339,69.752 103.5,72.5C 111.285,90.0902 108.118,92.0902 94,78.5C 91.8699,75.3206 91.3699,71.9873 92.5,68.5 Z"/></g>
<g><path fill="currentColor" d="M 29.5,68.5 C 31.7659,68.1412 33.5993,68.8078 35,70.5C 34.9808,73.2441 34.3141,75.9107 33,78.5C 17.9494,92.1196 14.9494,89.7862 24,71.5C 26.0581,70.7709 27.8914,69.7709 29.5,68.5 Z"/></g>
</svg>